<svg xmlns="http://www.w3.org/2000/svg" width="195.71" height="28.6" viewBox="0 0 195.71 28.6">
  <g id="logo" transform="translate(0.25 0.25)">
    <path id="Shape" d="M26.5,6.981A6.98,6.98,0,0,0,13.25,3.912,6.98,6.98,0,0,0,0,6.981a6.942,6.942,0,0,0,3.841,6.235A6.981,6.981,0,0,0,6.981,26.431a7.016,7.016,0,0,0,6.269-3.912A6.98,6.98,0,0,0,26.5,19.45a6.942,6.942,0,0,0-3.841-6.235A6.942,6.942,0,0,0,26.5,6.981Z" transform="translate(0.75 0.75)" fill="none" stroke="#3db370" stroke-miterlimit="10" stroke-width="2"/>
    <path id="Shape-2" data-name="Shape" d="M138.045,25.025A8.614,8.614,0,0,1,135,21.63a10.734,10.734,0,0,1-1.12-4.935,10.812,10.812,0,0,1,1.085-4.9,8.56,8.56,0,0,1,3.045-3.431,7.972,7.972,0,0,1,7.665-.455,7.322,7.322,0,0,1,2.555,2V1.68A1.611,1.611,0,0,1,148.685.49a1.69,1.69,0,0,1,2.38,0,1.549,1.549,0,0,1,.49,1.191V24.22a1.619,1.619,0,0,1-.49,1.19,1.549,1.549,0,0,1-1.19.49,1.607,1.607,0,0,1-1.19-.455,1.73,1.73,0,0,1-.455-1.225v-.98a7.038,7.038,0,0,1-2.485,2.135,6.874,6.874,0,0,1-3.395.876A7.854,7.854,0,0,1,138.045,25.025Zm-42.143,0a8.6,8.6,0,0,1-3.046-3.4,11.021,11.021,0,0,1-1.085-4.935,10.8,10.8,0,0,1,1.085-4.9A8.542,8.542,0,0,1,95.9,8.365a7.971,7.971,0,0,1,7.664-.455,7.094,7.094,0,0,1,2.555,1.96V9.03a1.728,1.728,0,0,1,.455-1.225,1.69,1.69,0,0,1,2.38,0,1.594,1.594,0,0,1,.491,1.225V24.22a1.623,1.623,0,0,1-.491,1.19,1.55,1.55,0,0,1-1.19.49,1.608,1.608,0,0,1-1.19-.455,1.726,1.726,0,0,1-.455-1.225v-.91a7.669,7.669,0,0,1-2.485,2.1,7.1,7.1,0,0,1-3.395.841A8.025,8.025,0,0,1,95.9,25.025Zm-39.88.034A8.44,8.44,0,0,1,52.7,21.735a9.99,9.99,0,0,1-1.155-4.83,10.674,10.674,0,0,1,1.19-5.144,8.88,8.88,0,0,1,3.185-3.43,8.231,8.231,0,0,1,8.47-.035,8.764,8.764,0,0,1,3.15,3.185,9.077,9.077,0,0,1,1.225,4.549,1.552,1.552,0,0,1-.525,1.085,1.721,1.721,0,0,1-1.156.419H54.761a6.123,6.123,0,0,0,1.924,4.095,6.013,6.013,0,0,0,4.165,1.54,6.5,6.5,0,0,0,2.731-.49,6.883,6.883,0,0,0,1.855-1.26,1.975,1.975,0,0,1,1.014-.315,1.27,1.27,0,0,1,.98.42,1.344,1.344,0,0,1,.42.98,1.726,1.726,0,0,1-.7,1.329,8.249,8.249,0,0,1-2.695,1.715,8.853,8.853,0,0,1-3.43.7A10.235,10.235,0,0,1,56.021,25.06Zm-19.961,0a8.44,8.44,0,0,1-3.326-3.325A9.99,9.99,0,0,1,31.58,16.9a10.674,10.674,0,0,1,1.19-5.144,8.887,8.887,0,0,1,3.185-3.43,8.231,8.231,0,0,1,8.47-.035,8.764,8.764,0,0,1,3.15,3.185A9.077,9.077,0,0,1,48.8,16.03a1.556,1.556,0,0,1-.525,1.085,1.719,1.719,0,0,1-1.155.419H34.8a6.12,6.12,0,0,0,1.925,4.095,6.011,6.011,0,0,0,4.164,1.54,6.5,6.5,0,0,0,2.731-.49,6.855,6.855,0,0,0,1.855-1.26,1.977,1.977,0,0,1,1.015-.315,1.274,1.274,0,0,1,.98.42,1.343,1.343,0,0,1,.419.98,1.726,1.726,0,0,1-.7,1.329A8.24,8.24,0,0,1,44.5,25.55a8.85,8.85,0,0,1-3.43.7A10.235,10.235,0,0,1,36.06,25.06Zm91.1.35a1.684,1.684,0,0,1-.454-1.19V14.735a5.249,5.249,0,0,0-.945-3.29,3.647,3.647,0,0,0-3.08-1.225,5.241,5.241,0,0,0-2.555.63,4.663,4.663,0,0,0-1.786,1.644,4.171,4.171,0,0,0-.63,2.24V24.22a1.622,1.622,0,0,1-.49,1.19,1.55,1.55,0,0,1-1.19.49,1.607,1.607,0,0,1-1.19-.455,1.726,1.726,0,0,1-.455-1.225V9.24a1.683,1.683,0,0,1,.455-1.191,1.617,1.617,0,0,1,1.19-.49,1.549,1.549,0,0,1,1.19.49,1.624,1.624,0,0,1,.49,1.191v1.225a7.407,7.407,0,0,1,2.52-2.345,6.726,6.726,0,0,1,3.5-.98q6.3,0,6.3,7.56v9.52a1.622,1.622,0,0,1-.49,1.19,1.55,1.55,0,0,1-1.19.49A1.621,1.621,0,0,1,127.165,25.41Zm-42.117,0a1.685,1.685,0,0,1-.455-1.19V14.875q0-4.551-3.85-4.55a4.716,4.716,0,0,0-3.43,1.33,4.258,4.258,0,0,0-1.364,3.22V24.22a1.619,1.619,0,0,1-.491,1.19,1.549,1.549,0,0,1-1.19.49,1.607,1.607,0,0,1-1.19-.455,1.73,1.73,0,0,1-.455-1.225V1.68A1.687,1.687,0,0,1,73.077.49,1.619,1.619,0,0,1,74.267,0a1.548,1.548,0,0,1,1.19.49,1.621,1.621,0,0,1,.491,1.191v8.855a7.285,7.285,0,0,1,2.45-2.31,6.249,6.249,0,0,1,3.36-.98q6.16,0,6.16,7.63V24.22a1.619,1.619,0,0,1-.491,1.19,1.549,1.549,0,0,1-1.19.49A1.619,1.619,0,0,1,85.047,25.41Zm-65.564.035a1.73,1.73,0,0,1-.455-1.225V9.24a1.687,1.687,0,0,1,.455-1.191,1.62,1.62,0,0,1,1.19-.49,1.547,1.547,0,0,1,1.19.49,1.621,1.621,0,0,1,.49,1.191v1.785a6.507,6.507,0,0,1,2.31-2.765,6.123,6.123,0,0,1,3.5-1.121,2.579,2.579,0,0,1,1.575.491A1.356,1.356,0,0,1,30.4,8.785a1.752,1.752,0,0,1-.455,1.3,1.425,1.425,0,0,1-1.05.42,3.329,3.329,0,0,1-.945-.211,3.939,3.939,0,0,0-1.155-.245,3.576,3.576,0,0,0-2.135.77,5.546,5.546,0,0,0-1.68,2.065,6.548,6.548,0,0,0-.63,2.905V24.22a1.619,1.619,0,0,1-.49,1.19,1.547,1.547,0,0,1-1.19.49A1.61,1.61,0,0,1,19.483,25.445ZM.49,25.41A1.619,1.619,0,0,1,0,24.22V3.08A1.62,1.62,0,0,1,.49,1.89,1.621,1.621,0,0,1,1.68,1.4H13.615a1.609,1.609,0,0,1,1.19.454,1.548,1.548,0,0,1,.49,1.19,1.542,1.542,0,0,1-.49,1.121,1.685,1.685,0,0,1-1.19.454H3.43v7.245h8.61a1.61,1.61,0,0,1,1.19.455,1.548,1.548,0,0,1,.49,1.19,1.431,1.431,0,0,1-.49,1.085,1.609,1.609,0,0,1-1.19.454H3.43v9.17a1.566,1.566,0,0,1-.525,1.19,1.621,1.621,0,0,1-1.19.49A1.663,1.663,0,0,1,.49,25.41Z" transform="translate(43.905 2.1)" fill="#16133d"/>
  </g>
</svg>
