<svg id="Group_11" data-name="Group 11" xmlns="http://www.w3.org/2000/svg" width="38" height="38" viewBox="0 0 38 38">
  <rect id="Rectangle" width="38" height="38" rx="5" fill="#efeef3"/>
  <path id="Shape" d="M5.878,19.937A5.968,5.968,0,0,1,1.687,18.32,5.919,5.919,0,0,1,.07,14.128c-.094-1.652-.094-6.6,0-8.254A5.937,5.937,0,0,1,1.687,1.682,5.947,5.947,0,0,1,5.878.07c1.652-.094,6.6-.094,8.255,0a5.958,5.958,0,0,1,4.192,1.616A5.92,5.92,0,0,1,19.94,5.878c.094,1.652.094,6.6,0,8.25a5.961,5.961,0,0,1-1.616,4.192,5.927,5.927,0,0,1-4.192,1.616c-.826.047-2.476.07-4.127.07S6.7,19.984,5.878,19.937Z" transform="translate(9 9)" fill="#0d0d0d"/>
</svg>
