<svg id="Group_13" data-name="Group 13" xmlns="http://www.w3.org/2000/svg" width="38" height="38" viewBox="0 0 38 38">
  <rect id="Rectangle" width="38" height="38" rx="5" fill="#efeef3"/>
  <path id="Shape" d="M6.835,19.484A10.109,10.109,0,0,1,0,9.839,9.669,9.669,0,0,1,9.871,0,9.887,9.887,0,0,1,20,9.839a10.016,10.016,0,0,1-6.766,9.637c-.512.093-.7-.226-.7-.488,0-.331.013-2.012.013-3.371a2.385,2.385,0,0,0-.686-1.871c2.254-.254,4.629-.564,4.629-4.455a3.134,3.134,0,0,0-1.04-2.375,3.8,3.8,0,0,0-.1-2.738c-.842-.266-2.782,1.088-2.782,1.088a9.524,9.524,0,0,0-5.065,0S5.56,3.915,4.718,4.178a3.812,3.812,0,0,0-.105,2.738,3.058,3.058,0,0,0-.951,2.375c0,3.879,2.274,4.206,4.528,4.455A2.244,2.244,0,0,0,7.545,15.1a2.132,2.132,0,0,1-2.94-.842,2.125,2.125,0,0,0-1.556-1.04c-.988-.013-.065.621-.065.621.661.3,1.121,1.476,1.121,1.476.593,1.806,3.416,1.2,3.416,1.2,0,.847.012,2.226.012,2.476a.485.485,0,0,1-.524.5A.982.982,0,0,1,6.835,19.484ZM6.254,15.7c0-.08.093-.145.21-.145s.226.052.226.145-.093.146-.21.146H6.449C6.333,15.849,6.254,15.787,6.254,15.7Zm.779-.052c-.013-.093.068-.169.185-.2.117-.012.226.04.238.117s-.068.158-.185.185a.286.286,0,0,1-.066.008A.158.158,0,0,1,7.033,15.649Zm-1.424.068c-.121-.024-.2-.117-.174-.2a.207.207,0,0,1,.25-.093c.122.036.2.129.174.21a.164.164,0,0,1-.164.1A.24.24,0,0,1,5.609,15.718Zm-.766-.452c-.093-.076-.117-.2-.052-.249s.173-.053.262.04c.08.077.1.2.052.25a.115.115,0,0,1-.092.04A.25.25,0,0,1,4.843,15.266Zm-.512-.6c-.065-.093-.065-.2,0-.238s.169-.012.226.081a.184.184,0,0,1,0,.249.083.083,0,0,1-.051.016A.236.236,0,0,1,4.331,14.661Zm-.383-.545c-.068-.076-.08-.169-.028-.209s.145-.024.21.04.08.169.028.21a.094.094,0,0,1-.069.028A.213.213,0,0,1,3.947,14.116Zm-.371-.379c-.081-.04-.121-.1-.093-.157s.093-.053.174-.029c.08.04.121.105.093.158a.1.1,0,0,1-.093.052A.153.153,0,0,1,3.577,13.738Z" transform="translate(9 9)" fill="#0d0d0d"/>
</svg>
