<svg id="Group_15" data-name="Group 15" xmlns="http://www.w3.org/2000/svg" width="38" height="38" viewBox="0 0 38 38">
  <rect id="Rectangle" width="38" height="38" rx="5" fill="#efeef3"/>
  <path id="Path" d="M17.944,4.048c.013.178.013.355.013.533A11.582,11.582,0,0,1,6.294,16.244,11.584,11.584,0,0,1,0,14.4a8.49,8.49,0,0,0,.99.051A8.209,8.209,0,0,0,6.079,12.7,4.106,4.106,0,0,1,2.246,9.86a5.175,5.175,0,0,0,.774.063A4.34,4.34,0,0,0,4.1,9.784,4.1,4.1,0,0,1,.812,5.761V5.711a4.128,4.128,0,0,0,1.853.52A4.105,4.105,0,0,1,1.4.749,11.651,11.651,0,0,0,9.848,5.038a4.621,4.621,0,0,1-.1-.939,4.1,4.1,0,0,1,7.094-2.8,8.07,8.07,0,0,0,2.6-.99,4.087,4.087,0,0,1-1.8,2.259A8.215,8.215,0,0,0,20,1.929,8.811,8.811,0,0,1,17.944,4.048Z" transform="translate(9 11)" fill="#0d0d0d"/>
</svg>
