<svg xmlns="http://www.w3.org/2000/svg" width="38.457" height="35.969" viewBox="0 0 38.457 35.969">
  <g id="Group_3" data-name="Group 3" transform="translate(0 -0.536)">
    <path id="Path" d="M33.322,0V19.661a2.485,2.485,0,0,1-2.563,2.4H2.563A2.485,2.485,0,0,1,0,19.661C0,1.074,0,4.556.006,0Z" transform="translate(2.566 13.846)" fill="#d1e7ff"/>
    <path id="Path-2" data-name="Path" d="M33.322,0V4.541a1.855,1.855,0,0,1-1.892,1.8H1.892A1.855,1.855,0,0,1,0,4.541C0,3.23,0,4.135.006,0Z" transform="translate(2.566 13.846)" fill="#b9dcff"/>
    <path id="Path-3" data-name="Path" d="M12.976,2.4V13.113H0V2.4A2.485,2.485,0,0,1,2.563,0h7.85A2.485,2.485,0,0,1,12.976,2.4Z" transform="translate(12.738 22.792)" fill="#e8f3ff"/>
    <path id="Path-4" data-name="Path" d="M37.168,12.71a4.656,4.656,0,0,1-9.292,0,4.5,4.5,0,0,1-4.646,4.346,4.5,4.5,0,0,1-4.646-4.346,4.5,4.5,0,0,1-4.646,4.346A4.5,4.5,0,0,1,9.293,12.71a4.531,4.531,0,0,1-4.646,4.346A4.531,4.531,0,0,1,0,12.71,32.853,32.853,0,0,1,.029,8.992c.038-.17-.228.432,3.8-8.27A1.288,1.288,0,0,1,5.008,0H32.161a1.289,1.289,0,0,1,1.176.722c4.033,8.709,3.764,8.1,3.8,8.27A32.806,32.806,0,0,1,37.168,12.71Z" transform="translate(0.642 1.136)" fill="#b9dcff"/>
    <path id="Path-5" data-name="Path" d="M37.169,3.718a4.656,4.656,0,0,1-9.291,0,4.5,4.5,0,0,1-4.646,4.346,4.5,4.5,0,0,1-4.646-4.346A4.5,4.5,0,0,1,13.94,8.064,4.5,4.5,0,0,1,9.295,3.718,4.53,4.53,0,0,1,4.649,8.064,4.531,4.531,0,0,1,0,3.718,31.443,31.443,0,0,1,.031,0h37.11A32.8,32.8,0,0,1,37.169,3.718Z" transform="translate(0.641 10.128)" fill="#a2d0ff"/>
    <path id="Path-6" data-name="Path" d="M31.786,3.2C23.649,2.156,15.438,3.5,8.8,8.181A4.51,4.51,0,0,1,6.2,8.992H0c.038-.17-.228.432,3.8-8.27A1.288,1.288,0,0,1,4.978,0H32.132a1.287,1.287,0,0,1,1.176.722l.178.385A1.536,1.536,0,0,1,31.786,3.2Z" transform="translate(0.672 1.136)" fill="#d1e7ff"/>
    <path id="Shape" d="M5.129,35.969a3.109,3.109,0,0,1-3.2-3V20.308a.621.621,0,0,1,.641-.6.621.621,0,0,1,.641.6V32.972a1.865,1.865,0,0,0,1.922,1.8H12.1V24.654a3.109,3.109,0,0,1,3.2-3h7.85a3.109,3.109,0,0,1,3.2,3v7.718a.642.642,0,0,1-1.282,0V24.654a1.865,1.865,0,0,0-1.922-1.8H15.3a1.865,1.865,0,0,0-1.922,1.8V34.77h5.207V25.328a.642.642,0,0,1,1.282,0V34.77H33.324a1.865,1.865,0,0,0,1.922-1.8V20.308a.642.642,0,0,1,1.282,0V32.972a3.109,3.109,0,0,1-3.2,3Zm23.389-20.3a5.468,5.468,0,0,1-9.292,0,5.469,5.469,0,0,1-9.293,0,5.354,5.354,0,0,1-4.644,2.589A5.136,5.136,0,0,1,0,13.311c0-4.051-.021-3.8.053-3.957L4.221.361A.643.643,0,0,1,4.809,0H33.645a.644.644,0,0,1,.588.361c4.477,9.665,4.247,9.073,4.211,9.314a.586.586,0,0,1-.244.392c-.255.183,1.474.125-33.391.125a.6.6,0,1,1,0-1.2H36.833L33.223,1.2H5.229L1.284,9.715V13.31a3.891,3.891,0,0,0,4,3.747A3.89,3.89,0,0,0,9.294,13.28a.642.642,0,0,1,1.282,0,3.885,3.885,0,0,0,4.005,3.777,3.887,3.887,0,0,0,4.005-3.747.642.642,0,0,1,1.282,0,3.887,3.887,0,0,0,4.005,3.747,3.887,3.887,0,0,0,4-3.747.642.642,0,0,1,1.282,0,4.014,4.014,0,0,0,8.01,0,.642.642,0,0,1,1.282,0,5.13,5.13,0,0,1-5.287,4.945A5.354,5.354,0,0,1,28.518,15.668Z" transform="translate(0 0.536)" fill="#007ffc"/>
  </g>
</svg>
