<svg xmlns="http://www.w3.org/2000/svg" width="38.457" height="34.734" viewBox="0 0 38.457 34.734">
  <g id="Group_1" data-name="Group 1" transform="translate(0 -0.528)">
    <path id="Path" d="M32.387,15.366A1.908,1.908,0,0,1,30.7,18.23a42.316,42.316,0,0,0-16.718,4.1l-1.783.962c0,.008-.025-.039,4.315,7.022a1.3,1.3,0,0,1-.528,1.845l-1.406.759a1.5,1.5,0,0,1-1.971-.495L8.279,25.4l-.7.38A3,3,0,0,1,3.633,24.8L.387,19.535a2.608,2.608,0,0,1,1.057-3.688l6.4-3.459A38.888,38.888,0,0,0,20,.892a2.117,2.117,0,0,1,3.5.064l2.778,4.5A3.466,3.466,0,0,1,30.83,6.6a3.015,3.015,0,0,1-1.222,4.264Z" transform="translate(0.64 1.568)" fill="#d1e7ff"/>
    <path id="Path-2" data-name="Path" d="M4.559,1.562A3.015,3.015,0,0,1,3.337,5.826L0,.419A3.466,3.466,0,0,1,4.559,1.562Z" transform="translate(26.911 6.607)" fill="#d1e7ff"/>
    <path id="Path-3" data-name="Path" d="M23.493.955a1.789,1.789,0,0,1-.066,1.991A45.661,45.661,0,0,1,9.81,15.524l-7.5,4.053A3.272,3.272,0,0,0,1.1,20.687L.387,19.535a2.608,2.608,0,0,1,1.057-3.689l6.4-3.459A38.888,38.888,0,0,0,20,.892,2.117,2.117,0,0,1,23.493.955Z" transform="translate(0.64 1.568)" fill="#e8f3ff"/>
    <path id="Path-4" data-name="Path" d="M7.848,0,13.98,9.937,7.576,13.4a3,3,0,0,1-3.943-.989L.387,7.148A2.608,2.608,0,0,1,1.444,3.459Z" transform="translate(0.64 13.956)" fill="#b9dcff"/>
    <path id="Path-5" data-name="Path" d="M9.79,3.147c-8.149,4.4-7.609,4.095-7.871,4.286A1.078,1.078,0,0,1,.387,7.148,2.608,2.608,0,0,1,1.444,3.459L7.848,0Z" transform="translate(0.64 13.956)" fill="#d1e7ff"/>
    <path id="Path-6" data-name="Path" d="M5.086,1.9c-2.28,1.235-.6.326-3.915,2.114L0,2.116,3.919,0Z" transform="translate(8.919 24.857)" fill="#b9dcff"/>
    <path id="Path-7" data-name="Path" d="M4.359,4.949a3.235,3.235,0,0,1-1.022.858L0,.4A3.471,3.471,0,0,1,1.305,0Z" transform="translate(26.911 6.626)" fill="#b9dcff"/>
    <path id="Shape" d="M12.693,33.759l-4.009-6.5-.148.08a3.666,3.666,0,0,1-4.818-1.208L.472,20.875a3.19,3.19,0,0,1,1.292-4.507l3.907-2.11a.665.665,0,0,1,.876.22.578.578,0,0,1-.235.819L2.4,17.407a2.03,2.03,0,0,0-.822,2.869l3.246,5.26a2.334,2.334,0,0,0,3.066.769c.413-.223,6.411-3.463,6.433-3.474a42.981,42.981,0,0,1,16.985-4.16,1.309,1.309,0,0,0,1.158-1.966L23.578,2.3a1.452,1.452,0,0,0-2.4-.044A39.434,39.434,0,0,1,9.345,13.618L13.2,19.869a.579.579,0,0,1-.234.819.666.666,0,0,1-.876-.22c-.028-.044-4.142-6.71-4.168-6.755a.579.579,0,0,1,.215-.789A38.252,38.252,0,0,0,20.1,1.612a2.781,2.781,0,0,1,4.594.085L27.172,5.72a4.207,4.207,0,0,1,2.437-.114A3.641,3.641,0,0,1,31.1,12.082l2.484,4.024a2.507,2.507,0,0,1-2.218,3.764,41.63,41.63,0,0,0-16.437,4.023L9.795,26.664,13.8,33.159a.833.833,0,0,0,1.1.275l1.406-.76a.724.724,0,0,0,.294-1.025l-2.841-4.6a.579.579,0,0,1,.235-.819.666.666,0,0,1,.876.219l2.84,4.6a1.882,1.882,0,0,1-.762,2.663l-1.406.76a2.189,2.189,0,0,1-1.041.261A2.113,2.113,0,0,1,12.693,33.759ZM36.14,11.722a.6.6,0,0,1-.454-.734.647.647,0,0,1,.786-.424l1.509.378a.6.6,0,0,1,.453.734.635.635,0,0,1-.618.445H37.8A14.694,14.694,0,0,1,36.14,11.722ZM34.65,5.95a.579.579,0,0,1,.234-.819l1.659-.9a.665.665,0,0,1,.876.22.579.579,0,0,1-.235.819l-1.658.9a.674.674,0,0,1-.32.08A.649.649,0,0,1,34.65,5.95ZM30.5,2.591a.6.6,0,0,1-.453-.734l.4-1.412a.647.647,0,0,1,.785-.424.6.6,0,0,1,.454.734l-.4,1.412a.638.638,0,0,1-.62.444A.685.685,0,0,1,30.5,2.591Z" transform="translate(0 0.528)" fill="#007ffc"/>
  </g>
</svg>
