<svg xmlns="http://www.w3.org/2000/svg" width="24.035" height="35.977" viewBox="0 0 24.035 35.977">
  <g id="Group_2" data-name="Group 2" transform="translate(0 -0.585)">
    <path id="Path" d="M20.19,0a2.486,2.486,0,0,1,2.564,2.4V32.379a2.486,2.486,0,0,1-2.564,2.4H2.564A2.486,2.486,0,0,1,0,32.379V2.4A2.486,2.486,0,0,1,2.564,0Z" transform="translate(0.641 1.185)" fill="#d1e7ff"/>
    <path id="Path-2" data-name="Path" d="M10.122,0a1.176,1.176,0,0,1,1.195,1l.857,7.366a1.155,1.155,0,0,1-1.195,1.246H1.2A1.155,1.155,0,0,1,.007,8.369L.865,1A1.175,1.175,0,0,1,2.059,0Z" transform="translate(5.927 14.055)" fill="#b9dcff"/>
    <path id="Path-3" data-name="Path" d="M20.311,0A1.5,1.5,0,1,1,20.2,3H11.857A8.388,8.388,0,0,0,3.2,11.093V34.778H2.564A2.485,2.485,0,0,1,0,32.379V2.4A2.485,2.485,0,0,1,2.564,0C2.68,0,20.217,0,20.311,0Z" transform="translate(0.641 1.184)" fill="#e8f3ff"/>
    <path id="Path-4" data-name="Path" d="M22.754,0V2.848a2.486,2.486,0,0,1-2.564,2.4H2.564A2.486,2.486,0,0,1,0,2.848V0Z" transform="translate(0.641 30.716)" fill="#b9dcff"/>
    <path id="Path-5" data-name="Path" d="M3.2,0V2.857C3.2,4.81,0,4.91,0,2.848V0Z" transform="translate(0.641 30.716)" fill="#d1e7ff"/>
    <path id="Path-6" data-name="Path" d="M10.122,2.249A7.335,7.335,0,0,0,2.657,8.505a1.3,1.3,0,0,1-1.323,1.11H1.2A1.155,1.155,0,0,1,.007,8.369L.865,1A1.175,1.175,0,0,1,2.059,0h8.063a1.175,1.175,0,0,1,1.194,1A1.155,1.155,0,0,1,10.122,2.249Z" transform="translate(5.927 14.055)" fill="#d1e7ff"/>
    <path id="Shape" d="M3.2,35.977a3.11,3.11,0,0,1-3.2-3V3A3.11,3.11,0,0,1,3.2,0H20.83a3.11,3.11,0,0,1,3.2,3V32.979a3.11,3.11,0,0,1-3.2,3Z" transform="translate(0 0.585)" fill="#007ffc"/>
  </g>
</svg>
